<?xml version="1.0" encoding="UTF-8"?>
<svg width="1920" height="1080" viewBox="0 0 1920 1080" xmlns="http://www.w3.org/2000/svg">
  <defs>
    <linearGradient id="bgGradient" x1="0%" y1="0%" x2="100%" y2="100%">
      <stop offset="0%" style="stop-color:#f8f9fa"/>
      <stop offset="100%" style="stop-color:#e9ecef"/>
    </linearGradient>
    <filter id="shadow" x="-20%" y="-20%" width="140%" height="140%">
      <feDropShadow dx="0" dy="4" stdDeviation="6" flood-color="#000" flood-opacity="0.1"/>
    </filter>
  </defs>

  <!-- Background -->
  <rect width="1920" height="1080" fill="url(#bgGradient)"/>

  <!-- Header -->
  <rect x="0" y="0" width="120" height="120" fill="#8DABC4"/>
  <text x="160" y="50" font-family="Arial, sans-serif" font-size="18" fill="#8DABC4" font-weight="bold">Part 4</text>
  <text x="160" y="90" font-family="Arial, sans-serif" font-size="36" fill="#2c3e50" font-weight="bold">트레이드오프와 다음 단계</text>

  <!-- Trade-off section -->
  <rect x="100" y="160" width="1720" height="380" rx="20" fill="white" filter="url(#shadow)"/>
  <text x="960" y="205" font-family="Arial, sans-serif" font-size="24" fill="#2c3e50" text-anchor="middle" font-weight="bold">⚖️ 기술 선택의 트레이드오프</text>

  <!-- Table header -->
  <rect x="150" y="240" width="400" height="50" rx="8" fill="#8DABC4"/>
  <text x="350" y="272" font-family="Arial, sans-serif" font-size="16" fill="white" text-anchor="middle" font-weight="bold">선택</text>
  <rect x="550" y="240" width="580" height="50" rx="8" fill="#28a745"/>
  <text x="840" y="272" font-family="Arial, sans-serif" font-size="16" fill="white" text-anchor="middle" font-weight="bold">얻은 것 (Benefit)</text>
  <rect x="1130" y="240" width="640" height="50" rx="8" fill="#dc3545"/>
  <text x="1450" y="272" font-family="Arial, sans-serif" font-size="16" fill="white" text-anchor="middle" font-weight="bold">잃은 것 (Cost)</text>

  <!-- Row 1: RabbitMQ -->
  <rect x="150" y="290" width="400" height="60" fill="#f8f9fa"/>
  <text x="170" y="327" font-family="Arial, sans-serif" font-size="16" fill="#2c3e50" font-weight="bold">RabbitMQ 도입</text>
  <rect x="550" y="290" width="580" height="60" fill="#d4edda"/>
  <text x="570" y="320" font-family="Arial, sans-serif" font-size="14" fill="#155724">비동기 처리, 메시지 버퍼링</text>
  <text x="570" y="340" font-family="Arial, sans-serif" font-size="14" fill="#155724">장애 격리, 재처리 가능</text>
  <rect x="1130" y="290" width="640" height="60" fill="#ffeaea"/>
  <text x="1150" y="320" font-family="Arial, sans-serif" font-size="14" fill="#dc3545">인프라 복잡성 증가</text>
  <text x="1150" y="340" font-family="Arial, sans-serif" font-size="14" fill="#dc3545">운영 부담 (모니터링, 관리)</text>

  <!-- Row 2: WebSocket -->
  <rect x="150" y="350" width="400" height="60" fill="white"/>
  <text x="170" y="387" font-family="Arial, sans-serif" font-size="16" fill="#2c3e50" font-weight="bold">WebSocket 실시간</text>
  <rect x="550" y="350" width="580" height="60" fill="#d4edda"/>
  <text x="570" y="380" font-family="Arial, sans-serif" font-size="14" fill="#155724">실시간 UX, 사용자 이탈 방지</text>
  <text x="570" y="400" font-family="Arial, sans-serif" font-size="14" fill="#155724">폴링보다 효율적</text>
  <rect x="1130" y="350" width="640" height="60" fill="#ffeaea"/>
  <text x="1150" y="380" font-family="Arial, sans-serif" font-size="14" fill="#dc3545">연결 관리 부담</text>
  <text x="1150" y="400" font-family="Arial, sans-serif" font-size="14" fill="#dc3545">연결 끊김 대응 필요</text>

  <!-- Row 3: User confirmation -->
  <rect x="150" y="410" width="400" height="60" fill="#f8f9fa"/>
  <text x="170" y="447" font-family="Arial, sans-serif" font-size="16" fill="#2c3e50" font-weight="bold">사용자 확인 단계</text>
  <rect x="550" y="410" width="580" height="60" fill="#d4edda"/>
  <text x="570" y="440" font-family="Arial, sans-serif" font-size="14" fill="#155724">데이터 품질 보장</text>
  <text x="570" y="460" font-family="Arial, sans-serif" font-size="14" fill="#155724">AI 오분류 사전 검증</text>
  <rect x="1130" y="410" width="640" height="60" fill="#ffeaea"/>
  <text x="1150" y="440" font-family="Arial, sans-serif" font-size="14" fill="#dc3545">추가 클릭 필요</text>
  <text x="1150" y="460" font-family="Arial, sans-serif" font-size="14" fill="#dc3545">UX 단계 증가</text>

  <!-- Row 4: Multi-cloud -->
  <rect x="150" y="470" width="400" height="60" fill="white"/>
  <text x="170" y="507" font-family="Arial, sans-serif" font-size="16" fill="#2c3e50" font-weight="bold">Multi-cloud 전략</text>
  <rect x="550" y="470" width="580" height="60" fill="#d4edda"/>
  <text x="570" y="500" font-family="Arial, sans-serif" font-size="14" fill="#155724">유연성, 비용 최적화</text>
  <text x="570" y="520" font-family="Arial, sans-serif" font-size="14" fill="#155724">벤더 락인 회피</text>
  <rect x="1130" y="470" width="640" height="60" fill="#ffeaea"/>
  <text x="1150" y="500" font-family="Arial, sans-serif" font-size="14" fill="#dc3545">운영 복잡성</text>
  <text x="1150" y="520" font-family="Arial, sans-serif" font-size="14" fill="#dc3545">통합 모니터링 어려움</text>

  <!-- Roadmap section -->
  <rect x="100" y="570" width="1720" height="340" rx="20" fill="white" filter="url(#shadow)"/>
  <text x="960" y="615" font-family="Arial, sans-serif" font-size="24" fill="#2c3e50" text-anchor="middle" font-weight="bold">🚀 로드맵 (다음 개선)</text>

  <!-- Roadmap items -->
  <rect x="150" y="660" width="380" height="200" rx="15" fill="#F5E0D8"/>
  <rect x="150" y="660" width="380" height="50" rx="15" fill="#d4a69a"/>
  <rect x="150" y="695" width="380" height="15" fill="#d4a69a"/>
  <circle cx="200" y="685" r="18" fill="white"/>
  <text x="200" y="692" font-family="Arial, sans-serif" font-size="18" fill="#d4a69a" text-anchor="middle" font-weight="bold">1</text>
  <text x="250" y="692" font-family="Arial, sans-serif" font-size="16" fill="white" font-weight="bold">배치 업로드</text>
  <text x="180" y="750" font-family="Arial, sans-serif" font-size="14" fill="#5a4a42">여러 장 동시 처리</text>
  <text x="180" y="775" font-family="Arial, sans-serif" font-size="13" fill="#6c757d">• 드래그&amp;드롭 다중 선택</text>
  <text x="180" y="795" font-family="Arial, sans-serif" font-size="13" fill="#6c757d">• 병렬 파이프라인 실행</text>
  <text x="180" y="815" font-family="Arial, sans-serif" font-size="13" fill="#6c757d">• 일괄 처리 진행도 표시</text>
  <text x="180" y="845" font-family="Arial, sans-serif" font-size="12" fill="#8DABC4">우선순위: 높음</text>

  <rect x="560" y="660" width="380" height="200" rx="15" fill="#E8EEF4"/>
  <rect x="560" y="660" width="380" height="50" rx="15" fill="#a8c5d8"/>
  <rect x="560" y="695" width="380" height="15" fill="#a8c5d8"/>
  <circle cx="610" y="685" r="18" fill="white"/>
  <text x="610" y="692" font-family="Arial, sans-serif" font-size="18" fill="#a8c5d8" text-anchor="middle" font-weight="bold">2</text>
  <text x="660" y="692" font-family="Arial, sans-serif" font-size="16" fill="white" font-weight="bold">AI 비용 최적화</text>
  <text x="590" y="750" font-family="Arial, sans-serif" font-size="14" fill="#4a5568">처리 비용 절감</text>
  <text x="590" y="775" font-family="Arial, sans-serif" font-size="13" fill="#6c757d">• 세그멘테이션 결과 캐싱</text>
  <text x="590" y="795" font-family="Arial, sans-serif" font-size="13" fill="#6c757d">• 선택적 파이프라인 실행</text>
  <text x="590" y="815" font-family="Arial, sans-serif" font-size="13" fill="#6c757d">• UI에서 필요 단계 선택</text>
  <text x="590" y="845" font-family="Arial, sans-serif" font-size="12" fill="#8DABC4">우선순위: 높음</text>

  <rect x="970" y="660" width="380" height="200" rx="15" fill="#d4edda"/>
  <rect x="970" y="660" width="380" height="50" rx="15" fill="#7bc47f"/>
  <rect x="970" y="695" width="380" height="15" fill="#7bc47f"/>
  <circle cx="1020" y="685" r="18" fill="white"/>
  <text x="1020" y="692" font-family="Arial, sans-serif" font-size="18" fill="#7bc47f" text-anchor="middle" font-weight="bold">3</text>
  <text x="1070" y="692" font-family="Arial, sans-serif" font-size="16" fill="white" font-weight="bold">자동 재처리</text>
  <text x="1000" y="750" font-family="Arial, sans-serif" font-size="14" fill="#155724">장애 복구 자동화</text>
  <text x="1000" y="775" font-family="Arial, sans-serif" font-size="13" fill="#6c757d">• Dead Letter Queue 도입</text>
  <text x="1000" y="795" font-family="Arial, sans-serif" font-size="13" fill="#6c757d">• 자동 Retry 정책</text>
  <text x="1000" y="815" font-family="Arial, sans-serif" font-size="13" fill="#6c757d">• 실패 알림 시스템</text>
  <text x="1000" y="845" font-family="Arial, sans-serif" font-size="12" fill="#8DABC4">우선순위: 중간</text>

  <rect x="1380" y="660" width="380" height="200" rx="15" fill="#8DABC4" opacity="0.3"/>
  <rect x="1380" y="660" width="380" height="50" rx="15" fill="#8DABC4"/>
  <rect x="1380" y="695" width="380" height="15" fill="#8DABC4"/>
  <circle cx="1430" y="685" r="18" fill="white"/>
  <text x="1430" y="692" font-family="Arial, sans-serif" font-size="18" fill="#8DABC4" text-anchor="middle" font-weight="bold">4</text>
  <text x="1480" y="692" font-family="Arial, sans-serif" font-size="16" fill="white" font-weight="bold">가상 피팅 고도화</text>
  <text x="1410" y="750" font-family="Arial, sans-serif" font-size="14" fill="#4a5568">사용자 경험 향상</text>
  <text x="1410" y="775" font-family="Arial, sans-serif" font-size="13" fill="#6c757d">• Gemini Vision 활용</text>
  <text x="1410" y="795" font-family="Arial, sans-serif" font-size="13" fill="#6c757d">• 다중 아이템 조합</text>
  <text x="1410" y="815" font-family="Arial, sans-serif" font-size="13" fill="#6c757d">• 스타일 추천 연동</text>
  <text x="1410" y="845" font-family="Arial, sans-serif" font-size="12" fill="#6c757d">우선순위: 낮음</text>

  <!-- Speaker notes -->
  <rect x="100" y="940" width="1720" height="80" rx="10" fill="white" filter="url(#shadow)"/>
  <text x="130" y="975" font-family="Arial, sans-serif" font-size="14" fill="#8DABC4" font-weight="bold">💬 발표 대본</text>
  <text x="130" y="1005" font-family="Arial, sans-serif" font-size="12" fill="#495057">모든 기술 선택에는 트레이드오프가 있었습니다. RabbitMQ로 비동기 처리를 얻었지만 인프라가 복잡해졌습니다. WebSocket으로 실시간 UX를 제공하지만 연결 관리가 추가됩니다. 다음 단계로는 배치 업로드, 비용 최적화, 자동 재처리를 계획하고 있습니다.</text>
</svg>
