<?xml version="1.0" encoding="UTF-8"?>
<svg width="1920" height="1080" viewBox="0 0 1920 1080" xmlns="http://www.w3.org/2000/svg">
  <defs>
    <linearGradient id="bgGradient" x1="0%" y1="0%" x2="100%" y2="100%">
      <stop offset="0%" style="stop-color:#f8f9fa"/>
      <stop offset="100%" style="stop-color:#e9ecef"/>
    </linearGradient>
    <filter id="shadow" x="-20%" y="-20%" width="140%" height="140%">
      <feDropShadow dx="0" dy="4" stdDeviation="6" flood-color="#000" flood-opacity="0.1"/>
    </filter>
    <linearGradient id="progressGradient" x1="0%" y1="0%" x2="100%" y2="0%">
      <stop offset="0%" style="stop-color:#8DABC4"/>
      <stop offset="100%" style="stop-color:#6B8FA8"/>
    </linearGradient>
  </defs>

  <!-- Background -->
  <rect width="1920" height="1080" fill="url(#bgGradient)"/>

  <!-- Header -->
  <rect x="0" y="0" width="120" height="120" fill="#8DABC4"/>
  <text x="160" y="50" font-family="Arial, sans-serif" font-size="18" fill="#8DABC4" font-weight="bold">Part 1</text>
  <text x="160" y="90" font-family="Arial, sans-serif" font-size="36" fill="#1a1a1a" font-weight="bold">κ²°κ³Όλ¬Ό: μ· μ—…λ΅λ“ β†’ AI μ²λ¦¬ β†’ ν™•μ •κΉμ§€</text>

  <!-- Step 1 -->
  <rect x="100" y="180" width="280" height="340" rx="15" fill="white" filter="url(#shadow)"/>
  <rect x="100" y="180" width="280" height="60" rx="15" fill="#F5E0D8"/>
  <rect x="100" y="225" width="280" height="15" fill="#F5E0D8"/>
  <text x="240" y="218" font-family="Arial, sans-serif" font-size="20" fill="#1a1a1a" text-anchor="middle" font-weight="bold">STEP 1</text>
  <text x="240" y="290" font-family="Arial, sans-serif" font-size="18" fill="#1a1a1a" text-anchor="middle" font-weight="bold">μ· μ‚¬μ§„ μ—…λ΅λ“</text>
  <!-- Upload icon -->
  <rect x="170" y="320" width="140" height="100" rx="10" fill="#e9ecef" stroke="#8DABC4" stroke-width="2" stroke-dasharray="8,4"/>
  <text x="240" y="380" font-family="Arial, sans-serif" font-size="36" fill="#8DABC4" text-anchor="middle">π“¤</text>
  <text x="240" y="460" font-family="Arial, sans-serif" font-size="14" fill="#1a1a1a" text-anchor="middle">Multipart μµλ€ 10MB</text>
  <text x="240" y="490" font-family="Arial, sans-serif" font-size="12" fill="#1a1a1a" text-anchor="middle">POST /api/v1/cloth/upload</text>

  <!-- Arrow 1 -->
  <polygon points="400,350 440,350 440,340 480,360 440,380 440,370 400,370" fill="#8DABC4"/>

  <!-- Step 2 -->
  <rect x="500" y="180" width="280" height="340" rx="15" fill="white" filter="url(#shadow)"/>
  <rect x="500" y="180" width="280" height="60" rx="15" fill="#E8EEF4"/>
  <rect x="500" y="225" width="280" height="15" fill="#E8EEF4"/>
  <text x="640" y="218" font-family="Arial, sans-serif" font-size="20" fill="#1a1a1a" text-anchor="middle" font-weight="bold">STEP 2</text>
  <text x="640" y="290" font-family="Arial, sans-serif" font-size="18" fill="#1a1a1a" text-anchor="middle" font-weight="bold">μ‹¤μ‹κ°„ μ§„ν–‰λ„</text>
  <!-- Progress bar -->
  <rect x="540" y="330" width="200" height="24" rx="12" fill="#e9ecef"/>
  <rect x="540" y="330" width="150" height="24" rx="12" fill="url(#progressGradient)"/>
  <text x="640" y="400" font-family="Arial, sans-serif" font-size="48" fill="#8DABC4" text-anchor="middle" font-weight="bold">70%</text>
  <text x="640" y="450" font-family="Arial, sans-serif" font-size="13" fill="#1a1a1a" text-anchor="middle">25% β†’ 50% β†’ 70% β†’ 95% β†’ 100%</text>
  <text x="640" y="490" font-family="Arial, sans-serif" font-size="12" fill="#1a1a1a" text-anchor="middle">WebSocket μ‹¤μ‹κ°„ μ „μ†΅</text>

  <!-- Arrow 2 -->
  <polygon points="800,350 840,350 840,340 880,360 840,380 840,370 800,370" fill="#8DABC4"/>

  <!-- Step 3 -->
  <rect x="900" y="180" width="280" height="340" rx="15" fill="white" filter="url(#shadow)"/>
  <rect x="900" y="180" width="280" height="60" rx="15" fill="#8DABC4"/>
  <rect x="900" y="225" width="280" height="15" fill="#8DABC4"/>
  <text x="1040" y="218" font-family="Arial, sans-serif" font-size="20" fill="white" text-anchor="middle" font-weight="bold">STEP 3</text>
  <text x="1040" y="290" font-family="Arial, sans-serif" font-size="18" fill="#1a1a1a" text-anchor="middle" font-weight="bold">4μΆ… μ΄λ―Έμ§€ μƒμ„±</text>
  <!-- 4 image grid -->
  <rect x="930" y="315" width="100" height="70" rx="8" fill="#F5E0D8"/>
  <text x="980" y="358" font-family="Arial, sans-serif" font-size="12" fill="#1a1a1a" text-anchor="middle">μ›λ³Έ</text>
  <rect x="1050" y="315" width="100" height="70" rx="8" fill="#E8EEF4"/>
  <text x="1100" y="358" font-family="Arial, sans-serif" font-size="12" fill="#1a1a1a" text-anchor="middle">λ°°κ²½μ κ±°</text>
  <rect x="930" y="395" width="100" height="70" rx="8" fill="#E8EEF4"/>
  <text x="980" y="438" font-family="Arial, sans-serif" font-size="12" fill="#1a1a1a" text-anchor="middle">μ„Έκ·Έλ¨ΌνΈ</text>
  <rect x="1050" y="395" width="100" height="70" rx="8" fill="#8DABC4" opacity="0.3"/>
  <text x="1100" y="438" font-family="Arial, sans-serif" font-size="12" fill="#1a1a1a" text-anchor="middle">μΈνμΈν…</text>
  <text x="1040" y="490" font-family="Arial, sans-serif" font-size="12" fill="#1a1a1a" text-anchor="middle">+ AI μΉ΄ν…κ³ λ¦¬ μ¶”μ²</text>

  <!-- Arrow 3 -->
  <polygon points="1200,350 1240,350 1240,340 1280,360 1240,380 1240,370 1200,370" fill="#8DABC4"/>

  <!-- Step 4 -->
  <rect x="1300" y="180" width="520" height="340" rx="15" fill="white" filter="url(#shadow)"/>
  <rect x="1300" y="180" width="520" height="60" rx="15" fill="#F5E0D8"/>
  <rect x="1300" y="225" width="520" height="15" fill="#F5E0D8"/>
  <text x="1560" y="218" font-family="Arial, sans-serif" font-size="20" fill="#1a1a1a" text-anchor="middle" font-weight="bold">STEP 4</text>
  <text x="1560" y="290" font-family="Arial, sans-serif" font-size="18" fill="#1a1a1a" text-anchor="middle" font-weight="bold">μ‚¬μ©μ ν™•μΈ β†’ μ·μ¥ μ €μ¥</text>
  <!-- Confirm button -->
  <rect x="1460" y="330" width="200" height="60" rx="30" fill="#8DABC4"/>
  <text x="1560" y="368" font-family="Arial, sans-serif" font-size="20" fill="white" text-anchor="middle" font-weight="bold">β“ ν™•μ •ν•κΈ°</text>
  <!-- Status change -->
  <text x="1560" y="440" font-family="Arial, sans-serif" font-size="16" fill="#1a1a1a" text-anchor="middle">READY_FOR_REVIEW</text>
  <text x="1560" y="470" font-family="Arial, sans-serif" font-size="24" fill="#8DABC4" text-anchor="middle">β†“</text>
  <text x="1560" y="500" font-family="Arial, sans-serif" font-size="18" fill="#28a745" text-anchor="middle" font-weight="bold">CONFIRMED</text>

  <!-- Bottom section - Impact statement -->
  <rect x="100" y="570" width="1720" height="120" rx="15" fill="#8DABC4" opacity="0.1"/>
  <rect x="100" y="570" width="8" height="120" fill="#8DABC4"/>
  <text x="160" y="645" font-family="Arial, sans-serif" font-size="32" fill="#1a1a1a" font-style="italic">"μ—…λ΅λ“ ν• λ²μ— 4μΆ… μ΄λ―Έμ§€ + μλ™ λ¶„λ¥κΉμ§€, μ•½ 20~30μ΄"</text>

  <!-- API Endpoints -->
  <rect x="100" y="730" width="1720" height="200" rx="15" fill="white" filter="url(#shadow)"/>
  <text x="160" y="780" font-family="Arial, sans-serif" font-size="20" fill="#1a1a1a" font-weight="bold">μ£Όμ” API μ—”λ“ν¬μΈνΈ</text>

  <rect x="160" y="810" width="380" height="100" rx="10" fill="#f8f9fa"/>
  <text x="180" y="845" font-family="monospace" font-size="14" fill="#1a1a1a" font-weight="bold">POST /api/v1/cloth/upload</text>
  <text x="180" y="875" font-family="Arial, sans-serif" font-size="13" fill="#1a1a1a">μ΄λ―Έμ§€ μ—…λ΅λ“ + λΉ„λ™κΈ° μ²λ¦¬ μ‹μ‘</text>
  <text x="180" y="895" font-family="Arial, sans-serif" font-size="12" fill="#666">Multipart/form-data</text>

  <rect x="570" y="810" width="380" height="100" rx="10" fill="#f8f9fa"/>
  <text x="590" y="845" font-family="monospace" font-size="14" fill="#1a1a1a" font-weight="bold">GET /api/v1/cloth/{id}/status</text>
  <text x="590" y="875" font-family="Arial, sans-serif" font-size="13" fill="#1a1a1a">ν„μ¬ μ²λ¦¬ μƒνƒ μ΅°ν</text>
  <text x="590" y="895" font-family="Arial, sans-serif" font-size="12" fill="#666">processingStatus, progressPercentage</text>

  <rect x="980" y="810" width="380" height="100" rx="10" fill="#f8f9fa"/>
  <text x="1000" y="845" font-family="monospace" font-size="14" fill="#1a1a1a" font-weight="bold">POST /api/v1/cloth/{id}/confirm</text>
  <text x="1000" y="875" font-family="Arial, sans-serif" font-size="13" fill="#1a1a1a">μ²λ¦¬ κ²°κ³Ό ν™•μ •</text>
  <text x="1000" y="895" font-family="Arial, sans-serif" font-size="12" fill="#666">status β†’ CONFIRMED</text>

  <rect x="1390" y="810" width="380" height="100" rx="10" fill="#f8f9fa"/>
  <text x="1410" y="845" font-family="monospace" font-size="14" fill="#1a1a1a" font-weight="bold">WS /queue/cloth/progress/{userId}</text>
  <text x="1410" y="875" font-family="Arial, sans-serif" font-size="13" fill="#1a1a1a">μ‹¤μ‹κ°„ μ§„ν–‰λ„ μμ‹ </text>
  <text x="1410" y="895" font-family="Arial, sans-serif" font-size="12" fill="#666">STOMP + SockJS</text>
</svg>
